<svg xmlns="http://www.w3.org/2000/svg" xmlns:data="ApexChartsNS" width="100" height="40" class="apexcharts-svg" style="background:0 0" version="1.1">
  <g class="apexcharts-inner apexcharts-graphical">
    <defs>
      <linearGradient id="a" x1="0" x2="0" y1="0" y2="1">
        <stop offset="0" stop-color="rgba(211,53,53,0.65)" stop-opacity=".65"/>
        <stop offset="1" stop-color="rgba(233,154,154,0.5)" stop-opacity=".5"/>
        <stop offset="1" stop-color="rgba(233,154,154,0.5)" stop-opacity=".5"/>
      </linearGradient>
      <clipPath id="b">
        <rect fill="#fff" width="106" height="42" x="-3" y="-1" stroke="none" stroke-dasharray="0" stroke-width="0" opacity="1" rx="0" ry="0"/>
      </clipPath>
    </defs>
    <path d="M0 40h100M0 1v39" stroke="transparent" stroke-dasharray="0" stroke-linecap="butt" class="apexcharts-grid"/>
    <g class="apexcharts-area-series apexcharts-plot-series">
      <g data:longestSeries="true" data:realIndex="0" class="apexcharts-series" rel="1" seriesName="seriesx1">
        <path d="M0 40V27.5c2.333 0 4.333-.5 6.667-.5C9 27 11 29.5 13.333 29.5c2.334 0 4.334 1 6.667 1s4.333-7 6.667-7c2.333 0 4.333 14 6.666 14 2.334 0 4.334-4.5 6.667-4.5s4.333 2 6.667 2C49 33 51 35 53.333 35c2.334 0 4.334-2 6.667-2s4.333-7 6.667-7C69 26 71 28.5 73.333 28.5c2.334 0 4.334-7 6.667-7s4.333 14 6.667 14C89 35 91 30 93.333 30c2.334 0 4.334-20.5 6.667-20.5V40m0-1.5z" fill="url(#a)" fill-opacity="1" class="apexcharts-area" clip-path="url(#b)" index="0" pathFrom="M -1 40L -1 40L 6.666666666666667 40L 13.333333333333334 40L 20 40L 26.666666666666668 40L 33.333333333333336 40L 40 40L 46.66666666666667 40L 53.333333333333336 40L 60 40L 66.66666666666667 40L 73.33333333333334 40L 80 40L 86.66666666666667 40L 93.33333333333334 40L 100 40" pathTo="M 0 40L 0 27.5C 2.3333333333333335 27.5 4.333333333333334 27 6.666666666666667 27C 9 27 11 29.5 13.333333333333334 29.5C 15.666666666666668 29.5 17.666666666666668 30.5 20 30.5C 22.333333333333332 30.5 24.333333333333336 23.5 26.666666666666668 23.5C 29 23.5 31.000000000000004 37.5 33.333333333333336 37.5C 35.66666666666667 37.5 37.66666666666667 33 40 33C 42.333333333333336 33 44.333333333333336 35 46.66666666666667 35C 49 35 51 37 53.333333333333336 37C 55.66666666666667 37 57.66666666666667 35 60 35C 62.333333333333336 35 64.33333333333334 28 66.66666666666667 28C 69 28 71.00000000000001 30.5 73.33333333333334 30.5C 75.66666666666667 30.5 77.66666666666667 23.5 80 23.5C 82.33333333333333 23.5 84.33333333333334 37.5 86.66666666666667 37.5C 89 37.5 91.00000000000001 33 93.33333333333334 33C 95.66666666666667 33 97.66666666666667 13.5 100 13.5"/>
        <path d="M0 27.5c2.333 0 4.333-.5 6.667-.5C9 27 11 29.5 13.333 29.5c2.334 0 4.334 1 6.667 1s4.333-7 6.667-7c2.333 0 4.333 14 6.666 14 2.334 0 4.334-4.5 6.667-4.5s4.333 2 6.667 2C49 33 51 35 53.333 35c2.334 0 4.334-2 6.667-2s4.333-7 6.667-7C69 26 71 28.5 73.333 28.5c2.334 0 4.334-7 6.667-7s4.333 14 6.667 14C89 35 91 30 93.333 30c2.334 0 4.334-20.5 6.667-20.5" fill="none" stroke="#d33535" stroke-dasharray="0" stroke-linecap="butt" stroke-opacity="1" stroke-width="2" class="apexcharts-area" clip-path="url(#b)" index="0" pathFrom="M -1 40L -1 40L 6.666666666666667 40L 13.333333333333334 40L 20 40L 26.666666666666668 40L 33.333333333333336 40L 40 40L 46.66666666666667 40L 53.333333333333336 40L 60 40L 66.66666666666667 40L 73.33333333333334 40L 80 40L 86.66666666666667 40L 93.33333333333334 40L 100 40" pathTo="M 0 27.5C 2.3333333333333335 27.5 4.333333333333334 27 6.666666666666667 27C 9 27 11 29.5 13.333333333333334 29.5C 15.666666666666668 29.5 17.666666666666668 30.5 20 30.5C 22.333333333333332 30.5 24.333333333333336 23.5 26.666666666666668 23.5C 29 23.5 31.000000000000004 37.5 33.333333333333336 37.5C 35.66666666666667 37.5 37.66666666666667 33 40 33C 42.333333333333336 33 44.333333333333336 35 46.66666666666667 35C 49 35 51 37 53.333333333333336 37C 55.66666666666667 37 57.66666666666667 35 60 35C 62.333333333333336 35 64.33333333333334 28 66.66666666666667 28C 69 28 71.00000000000001 30.5 73.33333333333334 30.5C 75.66666666666667 30.5 77.66666666666667 23.5 80 23.5C 82.33333333333333 23.5 84.33333333333334 37.5 86.66666666666667 37.5C 89 37.5 91.00000000000001 33 93.33333333333334 33C 95.66666666666667 33 97.66666666666667 13.5 100 13.5"/>
        <g data:realIndex="0" class="apexcharts-series-markers-wrap">
          <g class="apexcharts-series-markers">
            <circle fill="#d33535" fill-opacity="1" cx="93.333" cy="13.5" stroke="#fff" stroke-opacity=".9" stroke-width="2" class="apexcharts-marker wt1i0sivyg no-pointer-events" default-marker-size="0"/>
          </g>
        </g>
      </g>
    </g>
  </g>
</svg>
