<svg xmlns="http://www.w3.org/2000/svg" xmlns:data="ApexChartsNS" width="100" height="40" class="apexcharts-svg" style="background:0 0" version="1.1">
  <g class="apexcharts-inner apexcharts-graphical">
    <defs>
      <linearGradient id="a" x1="0" x2="0" y1="0" y2="1">
        <stop offset="0" stop-color="rgba(34,193,34,0.65)" stop-opacity=".65"/>
        <stop offset="1" stop-color="rgba(76,255,76,0.5)" stop-opacity=".5"/>
        <stop offset="1" stop-color="rgba(76,255,76,0.5)" stop-opacity=".5"/>
      </linearGradient>
      <clipPath id="b">
        <rect fill="#fff" width="106" height="42" x="-3" y="-1" stroke="none" stroke-dasharray="0" stroke-width="0" opacity="1" rx="0" ry="0"/>
      </clipPath>
    </defs>
    <path d="M0 40h100M0 1v39" stroke="transparent" stroke-dasharray="0" stroke-linecap="butt" class="apexcharts-grid"/>
    <g class="apexcharts-area-series apexcharts-plot-series">
      <g data:longestSeries="true" data:realIndex="0" class="apexcharts-series" rel="1" seriesName="seriesx1">
        <path d="M0 40V15c2.333 0 4.333-.5 6.667-.5C9 14.5 11 17 13.333 17c2.334 0 4.334 1 6.667 1s4.333-7 6.667-7c2.333 0 4.333 14 6.666 14 2.334 0 4.334-4.5 6.667-4.5s4.333 2 6.667 2C49 23 51 25 53.333 25c2.334 0 4.334-2 6.667-2s4.333-7 6.667-7C69 16 71 18.5 73.333 18.5c2.334 0 4.334-7 6.667-7s4.333 14 6.667 14C89 25.5 91 21 93.333 21c2.334 0 4.334 19.5 6.667 19.5V40m0-1.5z" fill="url(#a)" fill-opacity="1" class="apexcharts-area" clip-path="url(#b)" index="0" pathFrom="M -1 40L -1 40L 6.666666666666667 40L 13.333333333333334 40L 20 40L 26.666666666666668 40L 33.333333333333336 40L 40 40L 46.66666666666667 40L 53.333333333333336 40L 60 40L 66.66666666666667 40L 73.33333333333334 40L 80 40L 86.66666666666667 40L 93.33333333333334 40L 100 40" pathTo="M 0 40L 0 15C 2.3333333333333335 15 4.333333333333334 14.5 6.666666666666667 14.5C 9 14.5 11 17 13.333333333333334 17C 15.666666666666668 17 17.666666666666668 18 20 18C 22.333333333333332 18 24.333333333333336 11.5 26.666666666666668 11.5C 29 11.5 31.000000000000004 25 33.333333333333336 25C 35.66666666666667 25 37.66666666666667 21 40 21C 42.333333333333336 21 44.333333333333336 23 46.66666666666667 23C 49 23 51 25 53.333333333333336 25C 55.66666666666667 25 57.66666666666667 23 60 23C 62.333333333333336 23 64.33333333333334 16 66.66666666666667 16C 69 16 71.00000000000001 18.5 73.33333333333334 18.5C 75.66666666666667 18.5 77.66666666666667 11.5 80 11.5C 82.33333333333333 11.5 84.33333333333334 25 86.66666666666667 25C 89 25 91.00000000000001 21 93.33333333333334 21C 95.66666666666667 21 97.66666666666667 40 100 40"/>
        <path d="M0 15c2.333 0 4.333-.5 6.667-.5C9 14 11 16.5 13.333 16.5c2.334 0 4.334 1 6.667 1s4.333-7 6.667-7c2.333 0 4.333 14 6.666 14 2.334 0 4.334-4.5 6.667-4.5s4.333 2 6.667 2C49 23 51 25 53.333 25c2.334 0 4.334-2 6.667-2s4.333-7 6.667-7C69 16 71 18.5 73.333 18.5c2.334 0 4.334-7 6.667-7s4.333 14 6.667 14C89 25.5 91 21 93.333 21c2.334 0 4.334 19.5 6.667 19.5" fill="none" stroke="#34c234" stroke-dasharray="0" stroke-linecap="butt" stroke-opacity="1" stroke-width="2" class="apexcharts-area" clip-path="url(#b)" index="0" pathFrom="M -1 40L -1 40L 6.666666666666667 40L 13.333333333333334 40L 20 40L 26.666666666666668 40L 33.333333333333336 40L 40 40L 46.66666666666667 40L 53.333333333333336 40L 60 40L 66.66666666666667 40L 73.33333333333334 40L 80 40L 86.66666666666667 40L 93.33333333333334 40L 100 40" pathTo="M 0 15C 2.3333333333333335 15 4.333333333333334 14.5 6.666666666666667 14.5C 9 14.5 11 16 13.333333333333334 16C 15.666666666666668 16 17.666666666666668 17 20 17C 22.333333333333332 17 24.333333333333336 10 26.666666666666668 10C 29 10 31.000000000000004 24 33.333333333333336 24C 35.66666666666667 24 37.66666666666667 20 40 20C 42.333333333333336 20 44.333333333333336 22 46.66666666666667 22C 49 22 51 24 53.333333333333336 24C 55.66666666666667 24 57.66666666666667 22 60 22C 62.333333333333336 22 64.33333333333334 15 66.66666666666667 15C 69 15 71.00000000000001 17.5 73.33333333333334 17.5C 75.66666666666667 17.5 77.66666666666667 10 80 10C 82.33333333333333 10 84.33333333333334 24 86.66666666666667 24C 89 24 91.00000000000001 20 93.33333333333334 20C 95.66666666666667 20 97.66666666666667 39 100 39"/>
      </g>
    </g>
  </g>
</svg>
